<svg xmlns="http://www.w3.org/2000/svg" xmlns:xlink="http://www.w3.org/1999/xlink" viewBox="0 0 1366 745.49"><defs><style>.cls-1{fill:url(#linear-gradient);}</style><linearGradient id="linear-gradient" x1="861.16" y1="244.38" x2="94.38" y2="727.07" gradientUnits="userSpaceOnUse"><stop offset="0.01" stop-color="#15c7ff"/><stop offset="1" stop-color="#a26aff"/></linearGradient></defs><title>bg</title><g id="Layer_2" data-name="Layer 2"><g id="Layer_1-2" data-name="Layer 1"><path class="cls-1" d="M74,707.6c50.62,0,91.84,14.95,138.71,32.13,5.89,2.16,11.93,4.35,18.21,4.38,9,0,17.42-4.36,25.57-8.26,81.06-38.81,180.62-36.78,261,2.78,6.68,3.29,13.59,6.91,21,6.83,7.11-.08,13.69-3.53,20.07-6.69,83.17-41.08,185.46-41.07,268.64,0,6.39,3.16,13,6.62,20.12,6.68,7.38.07,14.23-3.53,20.85-6.79,83.19-41,185.43-40.94,268.58.14,6.26,3.09,12.7,6.48,19.69,6.66,7.87.2,15.18-3.69,22.23-7.19a290.94,290.94,0,0,1,133.08-30.79,298.71,298.71,0,0,1,54.26,5.57V305s-34-124-338-124S683,0,683,0H0V716.52A310.22,310.22,0,0,1,74,707.6Z"/></g></g></svg>